<?xml version="1.0" encoding="UTF-8"?>
<svg xmlns="http://www.w3.org/2000/svg" xmlns:xlink="http://www.w3.org/1999/xlink" width="39pt" height="38.999999pt" viewBox="0 0 39 38.999999" version="1.2">
<defs>
<clipPath id="clip1">
  <path d="M 16 24 L 24 24 L 24 31.78125 L 16 31.78125 Z M 16 24 "/>
</clipPath>
<clipPath id="clip2">
  <path d="M 31 24 L 39 24 L 39 31.78125 L 31 31.78125 Z M 31 24 "/>
</clipPath>
<clipPath id="clip3">
  <path d="M 24 7.089844 L 29 7.089844 L 29 11 L 24 11 Z M 24 7.089844 "/>
</clipPath>
<clipPath id="clip4">
  <path d="M 24 7.089844 L 29 7.089844 L 29 10 L 24 10 Z M 24 7.089844 "/>
</clipPath>
<clipPath id="clip5">
  <path d="M 24 7.089844 L 28 7.089844 L 28 10 L 24 10 Z M 24 7.089844 "/>
</clipPath>
<clipPath id="clip6">
  <path d="M 24 7.089844 L 26 7.089844 L 26 10 L 24 10 Z M 24 7.089844 "/>
</clipPath>
<clipPath id="clip7">
  <path d="M 13 31 L 16 31 L 16 31.78125 L 13 31.78125 Z M 13 31 "/>
</clipPath>
<clipPath id="clip8">
  <path d="M 4 31 L 10 31 L 10 31.78125 L 4 31.78125 Z M 4 31 "/>
</clipPath>
</defs>
<g id="surface1">
<rect x="0" y="0" width="39" height="38.999999" style="fill:rgb(100%,100%,100%);fill-opacity:0;stroke:none;"/>
<rect x="0" y="0" width="39" height="38.999999" style="fill:rgb(100%,100%,100%);fill-opacity:0;stroke:none;"/>
<rect x="0" y="0" width="39" height="38.999999" style="fill:rgb(100%,100%,100%);fill-opacity:0;stroke:none;"/>
<path style=" stroke:none;fill-rule:nonzero;fill:rgb(1.179504%,15.289307%,49.01886%);fill-opacity:1;" d="M 26.195312 19.152344 C 26.585938 19.257812 27.207031 19.40625 27.28125 20.128906 C 27.328125 20.535156 27.117188 21.136719 26.933594 21.5 C 26.542969 22.28125 26.011719 22.988281 25.484375 23.699219 L 25.558594 23.757812 C 25.421875 23.804688 25.332031 23.96875 25.285156 24.148438 C 25.242188 24.328125 25.375 24.632812 25.511719 24.765625 C 25.574219 24.828125 25.664062 24.871094 25.738281 24.855469 C 25.800781 24.839844 25.847656 24.796875 25.890625 24.734375 C 26.570312 23.953125 27.160156 23.09375 27.617188 22.148438 C 27.828125 21.710938 28.007812 21.257812 28.070312 20.777344 C 28.128906 20.292969 28.054688 19.796875 27.78125 19.390625 C 27.511719 18.984375 26.511719 18.367188 26.027344 18.441406 Z M 26.195312 19.152344 "/>
<path style=" stroke:none;fill-rule:nonzero;fill:rgb(9.01947%,39.608765%,81.17981%);fill-opacity:1;" d="M 18.707031 20.203125 L 8.691406 20.203125 C 8.496094 20.203125 8.34375 20.054688 8.34375 19.859375 L 8.34375 11.050781 C 8.34375 10.855469 8.496094 10.703125 8.691406 10.703125 L 18.707031 10.703125 C 18.902344 10.703125 19.054688 10.855469 19.054688 11.050781 L 19.054688 19.859375 C 19.054688 20.054688 18.902344 20.203125 18.707031 20.203125 Z M 18.707031 20.203125 "/>
<path style=" stroke:none;fill-rule:nonzero;fill:rgb(30.979919%,58.039856%,97.648621%);fill-opacity:1;" d="M 19.28125 20.203125 L 9.265625 20.203125 C 9.070312 20.203125 8.917969 20.054688 8.917969 19.859375 L 8.917969 11.050781 C 8.917969 10.855469 9.070312 10.703125 9.265625 10.703125 L 19.28125 10.703125 C 19.476562 10.703125 19.628906 10.855469 19.628906 11.050781 L 19.628906 19.859375 C 19.628906 20.054688 19.476562 20.203125 19.28125 20.203125 Z M 19.28125 20.203125 "/>
<path style=" stroke:none;fill-rule:nonzero;fill:rgb(1.179504%,15.289307%,49.01886%);fill-opacity:1;" d="M 16.511719 22.628906 C 16.496094 22.628906 16.480469 22.628906 16.46875 22.613281 L 13.273438 20.234375 C 13.246094 20.203125 13.230469 20.160156 13.261719 20.128906 C 13.289062 20.097656 13.335938 20.085938 13.367188 20.113281 L 16.558594 22.507812 C 16.589844 22.539062 16.601562 22.582031 16.574219 22.613281 C 16.558594 22.613281 16.527344 22.628906 16.511719 22.628906 Z M 16.511719 22.628906 "/>
<path style=" stroke:none;fill-rule:nonzero;fill:rgb(1.179504%,15.289307%,49.01886%);fill-opacity:1;" d="M 19.628906 20.25 L 12.246094 20.25 C 12.199219 20.25 12.171875 20.21875 12.171875 20.175781 C 12.171875 20.128906 12.199219 20.097656 12.246094 20.097656 L 19.644531 20.097656 C 19.6875 20.097656 19.71875 20.128906 19.71875 20.175781 C 19.71875 20.21875 19.675781 20.25 19.628906 20.25 Z M 19.628906 20.25 "/>
<path style=" stroke:none;fill-rule:nonzero;fill:rgb(99.609375%,58.428955%,57.249451%);fill-opacity:1;" d="M 25.300781 9.277344 L 26.578125 9.515625 L 26.179688 11.632812 L 24.902344 11.390625 Z M 25.300781 9.277344 "/>
<path style=" stroke:none;fill-rule:nonzero;fill:rgb(98.429871%,47.059631%,45.489502%);fill-opacity:1;" d="M 25.300781 9.289062 L 25.148438 10.101562 C 25.605469 10.507812 25.9375 11.035156 26.195312 11.59375 L 26.585938 9.53125 Z M 25.300781 9.289062 "/>
<path style=" stroke:none;fill-rule:nonzero;fill:rgb(43.919373%,73.329163%,57.249451%);fill-opacity:1;" d="M 25.726562 16.832031 C 25.980469 15.339844 26.222656 14.289062 26.40625 12.78125 C 26.496094 12.089844 26.058594 11.082031 25.390625 10.824219 C 24.921875 10.644531 24.378906 10.703125 23.925781 10.945312 C 23.230469 11.320312 22.867188 12.105469 22.59375 12.8125 C 22.230469 13.761719 22.050781 14.753906 21.867188 15.746094 C 21.746094 16.394531 21.640625 17.089844 21.835938 17.691406 C 23.199219 17.75 24.542969 17.449219 25.726562 16.832031 Z M 25.726562 16.832031 "/>
<path style=" stroke:none;fill-rule:nonzero;fill:rgb(28.239441%,58.428955%,41.958618%);fill-opacity:1;" d="M 26.375 12.195312 C 26.359375 14.167969 25.542969 15.988281 24.210938 17.433594 C 24.742188 17.285156 25.242188 17.089844 25.726562 16.847656 C 25.980469 15.355469 26.222656 14.300781 26.40625 12.796875 C 26.4375 12.601562 26.421875 12.390625 26.375 12.195312 Z M 26.375 12.195312 "/>
<path style=" stroke:none;fill-rule:nonzero;fill:rgb(26.269531%,42.749023%,83.918762%);fill-opacity:1;" d="M 29.203125 18.277344 C 28.703125 17.539062 27.78125 17.058594 26.917969 16.921875 C 26.785156 16.90625 25.738281 16.742188 25.710938 16.90625 C 25.710938 16.890625 25.710938 16.863281 25.726562 16.847656 C 24.542969 17.464844 23.199219 17.765625 21.851562 17.707031 C 21.882812 17.8125 21.941406 17.917969 22.003906 18.019531 C 22.667969 19.121094 24.105469 18.953125 25.195312 18.984375 C 25.9375 19 27.28125 19 27.511719 19.902344 C 27.570312 20.144531 27.539062 20.398438 27.496094 20.640625 C 27.359375 21.363281 27.054688 22.042969 26.707031 22.6875 C 26.632812 22.839844 25.648438 24.496094 25.632812 24.480469 C 25.816406 24.601562 26.011719 24.722656 26.195312 24.839844 C 26.40625 24.976562 27.417969 23.773438 27.554688 23.59375 C 27.980469 22.988281 28.417969 22.386719 28.8125 21.753906 C 29.234375 21.0625 29.566406 20.292969 29.597656 19.480469 C 29.597656 19.046875 29.460938 18.640625 29.203125 18.277344 Z M 29.203125 18.277344 "/>
<path style=" stroke:none;fill-rule:nonzero;fill:rgb(19.219971%,37.249756%,82.348633%);fill-opacity:1;" d="M 27.707031 19.285156 C 26.707031 17.71875 23.53125 19.648438 22.304688 17.707031 C 22.15625 17.707031 22.003906 17.707031 21.851562 17.707031 C 21.882812 17.8125 21.941406 17.917969 22.003906 18.019531 C 22.667969 19.121094 24.105469 18.953125 25.195312 18.984375 C 25.9375 19 27.28125 19 27.511719 19.902344 C 27.570312 20.144531 27.539062 20.398438 27.496094 20.640625 C 27.359375 21.363281 27.054688 22.042969 26.707031 22.6875 C 26.632812 22.839844 25.648438 24.496094 25.632812 24.480469 C 25.664062 24.496094 25.710938 24.527344 25.738281 24.539062 C 27.238281 22.929688 28.917969 21.214844 27.707031 19.285156 Z M 27.707031 19.285156 "/>
<g clip-path="url(#clip1)" clip-rule="nonzero">
<path style=" stroke:none;fill-rule:nonzero;fill:rgb(1.179504%,15.289307%,49.01886%);fill-opacity:1;" d="M 23.683594 28.09375 C 23.683594 28.582031 23.589844 29.054688 23.402344 29.503906 C 23.210938 29.957031 22.945312 30.355469 22.597656 30.703125 C 22.25 31.046875 21.847656 31.316406 21.394531 31.5 C 20.941406 31.6875 20.46875 31.78125 19.976562 31.78125 C 19.484375 31.78125 19.011719 31.6875 18.558594 31.5 C 18.105469 31.316406 17.703125 31.046875 17.355469 30.703125 C 17.007812 30.355469 16.742188 29.957031 16.550781 29.503906 C 16.363281 29.054688 16.269531 28.582031 16.269531 28.09375 C 16.269531 27.605469 16.363281 27.132812 16.550781 26.683594 C 16.742188 26.230469 17.007812 25.832031 17.355469 25.484375 C 17.703125 25.140625 18.105469 24.875 18.558594 24.6875 C 19.011719 24.5 19.484375 24.40625 19.976562 24.40625 C 20.46875 24.40625 20.941406 24.5 21.394531 24.6875 C 21.847656 24.875 22.25 25.140625 22.597656 25.484375 C 22.945312 25.832031 23.210938 26.230469 23.402344 26.683594 C 23.589844 27.132812 23.683594 27.605469 23.683594 28.09375 Z M 23.683594 28.09375 "/>
</g>
<path style=" stroke:none;fill-rule:nonzero;fill:rgb(9.01947%,39.608765%,81.17981%);fill-opacity:1;" d="M 22.457031 28.09375 C 22.457031 28.421875 22.394531 28.734375 22.269531 29.039062 C 22.144531 29.339844 21.964844 29.609375 21.730469 29.839844 C 21.5 30.070312 21.230469 30.25 20.925781 30.375 C 20.621094 30.5 20.304688 30.5625 19.976562 30.5625 C 19.648438 30.5625 19.332031 30.5 19.027344 30.375 C 18.722656 30.25 18.453125 30.070312 18.222656 29.839844 C 17.988281 29.609375 17.808594 29.339844 17.683594 29.039062 C 17.558594 28.734375 17.496094 28.421875 17.496094 28.09375 C 17.496094 27.765625 17.558594 27.453125 17.683594 27.148438 C 17.808594 26.847656 17.988281 26.578125 18.222656 26.347656 C 18.453125 26.117188 18.722656 25.9375 19.027344 25.8125 C 19.332031 25.6875 19.648438 25.625 19.976562 25.625 C 20.304688 25.625 20.621094 25.6875 20.925781 25.8125 C 21.230469 25.9375 21.5 26.117188 21.730469 26.347656 C 21.964844 26.578125 22.144531 26.847656 22.269531 27.148438 C 22.394531 27.453125 22.457031 27.765625 22.457031 28.09375 Z M 22.457031 28.09375 "/>
<path style=" stroke:none;fill-rule:nonzero;fill:rgb(69.799805%,69.799805%,69.799805%);fill-opacity:1;" d="M 20.988281 28.09375 C 20.988281 28.226562 20.964844 28.355469 20.914062 28.480469 C 20.863281 28.601562 20.789062 28.710938 20.691406 28.808594 C 20.597656 28.902344 20.488281 28.972656 20.363281 29.027344 C 20.238281 29.078125 20.109375 29.101562 19.976562 29.101562 C 19.84375 29.101562 19.710938 29.078125 19.589844 29.027344 C 19.464844 28.972656 19.355469 28.902344 19.261719 28.808594 C 19.164062 28.710938 19.089844 28.601562 19.039062 28.480469 C 18.988281 28.355469 18.964844 28.226562 18.964844 28.09375 C 18.964844 27.960938 18.988281 27.832031 19.039062 27.707031 C 19.089844 27.585938 19.164062 27.476562 19.261719 27.378906 C 19.355469 27.285156 19.464844 27.214844 19.589844 27.160156 C 19.710938 27.109375 19.84375 27.085938 19.976562 27.085938 C 20.109375 27.085938 20.238281 27.109375 20.363281 27.160156 C 20.488281 27.214844 20.597656 27.285156 20.691406 27.378906 C 20.789062 27.476562 20.863281 27.585938 20.914062 27.707031 C 20.964844 27.832031 20.988281 27.960938 20.988281 28.09375 Z M 20.988281 28.09375 "/>
<path style=" stroke:none;fill-rule:nonzero;fill:rgb(99.21875%,71.759033%,0.779724%);fill-opacity:1;" d="M 33.863281 15.460938 L 31.59375 15.460938 C 31.851562 16.457031 32.652344 18.035156 32.019531 21.363281 C 31.777344 22.644531 30.519531 25.382812 28.945312 25.339844 C 27.585938 25.308594 25.726562 25.15625 25.089844 23.441406 C 24.257812 21.214844 25.738281 19.8125 25.738281 19.8125 L 19.992188 19.8125 C 18.601562 19.8125 15.179688 20.730469 14.742188 26.300781 C 14.695312 26.875 15.179688 27.339844 15.757812 27.339844 L 32.5 27.339844 L 33.832031 24.042969 L 35.679688 24.675781 C 36.359375 23.910156 37.691406 25.683594 37.902344 24.675781 C 39.082031 19.269531 33.863281 15.460938 33.863281 15.460938 Z M 33.863281 15.460938 "/>
<path style=" stroke:none;fill-rule:nonzero;fill:rgb(99.21875%,62.348938%,0.779724%);fill-opacity:1;" d="M 33.210938 15.460938 C 32.546875 15.460938 31.609375 15.460938 31.609375 15.460938 C 31.867188 16.457031 32.667969 18.035156 32.03125 21.363281 C 31.804688 22.539062 30.746094 24.902344 29.355469 25.292969 C 30.65625 25.1875 35.148438 22.464844 33.210938 15.460938 Z M 33.210938 15.460938 "/>
<g clip-path="url(#clip2)" clip-rule="nonzero">
<path style=" stroke:none;fill-rule:nonzero;fill:rgb(1.179504%,15.289307%,49.01886%);fill-opacity:1;" d="M 38.765625 28.09375 C 38.765625 28.582031 38.671875 29.054688 38.480469 29.503906 C 38.292969 29.957031 38.027344 30.355469 37.679688 30.703125 C 37.332031 31.046875 36.929688 31.316406 36.476562 31.5 C 36.023438 31.6875 35.550781 31.78125 35.058594 31.78125 C 34.566406 31.78125 34.09375 31.6875 33.640625 31.5 C 33.1875 31.316406 32.785156 31.046875 32.4375 30.703125 C 32.089844 30.355469 31.824219 29.957031 31.632812 29.503906 C 31.445312 29.054688 31.351562 28.582031 31.351562 28.09375 C 31.351562 27.605469 31.445312 27.132812 31.632812 26.683594 C 31.824219 26.230469 32.089844 25.832031 32.4375 25.484375 C 32.785156 25.140625 33.1875 24.875 33.640625 24.6875 C 34.09375 24.5 34.566406 24.40625 35.058594 24.40625 C 35.550781 24.40625 36.023438 24.5 36.476562 24.6875 C 36.929688 24.875 37.332031 25.140625 37.679688 25.484375 C 38.027344 25.832031 38.292969 26.230469 38.480469 26.683594 C 38.671875 27.132812 38.765625 27.605469 38.765625 28.09375 Z M 38.765625 28.09375 "/>
</g>
<path style=" stroke:none;fill-rule:nonzero;fill:rgb(9.01947%,39.608765%,81.17981%);fill-opacity:1;" d="M 37.539062 28.09375 C 37.539062 28.421875 37.476562 28.734375 37.351562 29.039062 C 37.222656 29.339844 37.046875 29.609375 36.8125 29.839844 C 36.578125 30.070312 36.3125 30.25 36.007812 30.375 C 35.703125 30.5 35.386719 30.5625 35.058594 30.5625 C 34.730469 30.5625 34.414062 30.5 34.109375 30.375 C 33.804688 30.25 33.535156 30.070312 33.304688 29.839844 C 33.070312 29.609375 32.890625 29.339844 32.765625 29.039062 C 32.640625 28.734375 32.578125 28.421875 32.578125 28.09375 C 32.578125 27.765625 32.640625 27.453125 32.765625 27.148438 C 32.890625 26.847656 33.070312 26.578125 33.304688 26.347656 C 33.535156 26.117188 33.804688 25.9375 34.109375 25.8125 C 34.414062 25.6875 34.730469 25.625 35.058594 25.625 C 35.386719 25.625 35.703125 25.6875 36.007812 25.8125 C 36.3125 25.9375 36.578125 26.117188 36.8125 26.347656 C 37.046875 26.578125 37.222656 26.847656 37.351562 27.148438 C 37.476562 27.453125 37.539062 27.765625 37.539062 28.09375 Z M 37.539062 28.09375 "/>
<path style=" stroke:none;fill-rule:nonzero;fill:rgb(69.799805%,69.799805%,69.799805%);fill-opacity:1;" d="M 36.070312 28.09375 C 36.070312 28.226562 36.046875 28.355469 35.996094 28.480469 C 35.941406 28.601562 35.871094 28.710938 35.773438 28.808594 C 35.679688 28.902344 35.570312 28.972656 35.445312 29.027344 C 35.320312 29.078125 35.191406 29.101562 35.058594 29.101562 C 34.925781 29.101562 34.792969 29.078125 34.671875 29.027344 C 34.546875 28.972656 34.4375 28.902344 34.339844 28.808594 C 34.246094 28.710938 34.171875 28.601562 34.121094 28.480469 C 34.070312 28.355469 34.042969 28.226562 34.042969 28.09375 C 34.042969 27.960938 34.070312 27.832031 34.121094 27.707031 C 34.171875 27.585938 34.246094 27.476562 34.339844 27.378906 C 34.4375 27.285156 34.546875 27.214844 34.671875 27.160156 C 34.792969 27.109375 34.925781 27.085938 35.058594 27.085938 C 35.191406 27.085938 35.320312 27.109375 35.445312 27.160156 C 35.570312 27.214844 35.679688 27.285156 35.773438 27.378906 C 35.871094 27.476562 35.941406 27.585938 35.996094 27.707031 C 36.046875 27.832031 36.070312 27.960938 36.070312 28.09375 Z M 36.070312 28.09375 "/>
<path style=" stroke:none;fill-rule:nonzero;fill:rgb(99.21875%,62.348938%,0.779724%);fill-opacity:1;" d="M 38.613281 27.191406 C 38.792969 27.324219 39.050781 27.160156 38.992188 26.933594 C 38.523438 25.082031 36.949219 23.726562 35.105469 23.726562 C 33.242188 23.726562 31.683594 25.082031 31.214844 26.933594 C 31.15625 27.160156 31.414062 27.324219 31.59375 27.191406 C 32.59375 26.46875 33.804688 26.046875 35.105469 26.046875 C 36.40625 26.046875 37.613281 26.46875 38.613281 27.191406 Z M 38.613281 27.191406 "/>
<path style=" stroke:none;fill-rule:nonzero;fill:rgb(99.21875%,71.759033%,0.779724%);fill-opacity:1;" d="M 34.210938 13.414062 L 34.210938 15.460938 C 34.726562 15.402344 35.132812 14.964844 35.132812 14.4375 C 35.132812 13.894531 34.726562 13.460938 34.210938 13.414062 Z M 34.210938 13.414062 "/>
<path style=" stroke:none;fill-rule:nonzero;fill:rgb(99.21875%,62.348938%,0.779724%);fill-opacity:1;" d="M 34.089844 13.398438 L 31.667969 13.398438 C 31.367188 13.398438 31.125 13.640625 31.125 13.941406 L 31.125 14.921875 C 31.125 15.222656 31.367188 15.460938 31.667969 15.460938 L 34.089844 15.460938 C 34.121094 15.460938 34.164062 15.460938 34.195312 15.460938 L 34.195312 13.414062 C 34.164062 13.414062 34.136719 13.398438 34.089844 13.398438 Z M 34.089844 13.398438 "/>
<path style=" stroke:none;fill-rule:nonzero;fill:rgb(1.179504%,15.289307%,49.01886%);fill-opacity:1;" d="M 32.320312 14.605469 L 29.929688 15.808594 C 29.734375 15.898438 29.507812 15.824219 29.414062 15.644531 C 29.324219 15.445312 29.402344 15.222656 29.582031 15.128906 C 29.582031 15.128906 29.597656 15.128906 29.597656 15.117188 L 32.0625 14.0625 C 32.214844 14 32.394531 14.0625 32.457031 14.226562 C 32.53125 14.363281 32.472656 14.542969 32.320312 14.605469 Z M 32.320312 14.605469 "/>
<path style=" stroke:none;fill-rule:nonzero;fill:rgb(99.21875%,62.348938%,0.779724%);fill-opacity:1;" d="M 19.339844 20.914062 C 18.628906 20.914062 17.933594 21.046875 17.300781 21.289062 C 20.171875 21.320312 22.5625 23.035156 22.988281 25.789062 C 23.046875 26.183594 23.378906 26.484375 23.773438 26.484375 L 24.183594 26.484375 C 24.679688 26.484375 25.058594 26.03125 24.96875 25.535156 C 24.453125 22.898438 22.140625 20.914062 19.339844 20.914062 Z M 19.339844 20.914062 "/>
<path style=" stroke:none;fill-rule:nonzero;fill:rgb(1.179504%,15.289307%,49.01886%);fill-opacity:1;" d="M 26.042969 18.910156 L 19.371094 18.910156 C 19.097656 18.910156 18.886719 19.121094 18.886719 19.390625 C 18.886719 19.664062 19.097656 19.875 19.371094 19.875 L 26.042969 19.875 C 26.316406 19.875 26.527344 19.664062 26.527344 19.390625 C 26.527344 19.136719 26.316406 18.910156 26.042969 18.910156 Z M 26.042969 18.910156 "/>
<path style=" stroke:none;fill-rule:nonzero;fill:rgb(1.179504%,15.289307%,49.01886%);fill-opacity:1;" d="M 20.855469 23.894531 L 16.511719 23.894531 C 16.4375 23.894531 16.375 23.832031 16.375 23.757812 C 16.375 23.683594 16.4375 23.621094 16.511719 23.621094 L 20.855469 23.621094 C 20.929688 23.621094 20.988281 23.683594 20.988281 23.757812 C 20.988281 23.832031 20.929688 23.894531 20.855469 23.894531 Z M 20.855469 23.894531 "/>
<path style=" stroke:none;fill-rule:nonzero;fill:rgb(1.179504%,15.289307%,49.01886%);fill-opacity:1;" d="M 20.855469 24.734375 L 16.511719 24.734375 C 16.4375 24.734375 16.375 24.675781 16.375 24.601562 C 16.375 24.527344 16.4375 24.464844 16.511719 24.464844 L 20.855469 24.464844 C 20.929688 24.464844 20.988281 24.527344 20.988281 24.601562 C 20.988281 24.675781 20.929688 24.734375 20.855469 24.734375 Z M 20.855469 24.734375 "/>
<path style=" stroke:none;fill-rule:nonzero;fill:rgb(1.179504%,15.289307%,49.01886%);fill-opacity:1;" d="M 20.855469 25.578125 L 16.511719 25.578125 C 16.4375 25.578125 16.375 25.519531 16.375 25.445312 C 16.375 25.367188 16.4375 25.308594 16.511719 25.308594 L 20.855469 25.308594 C 20.929688 25.308594 20.988281 25.367188 20.988281 25.445312 C 20.988281 25.519531 20.929688 25.578125 20.855469 25.578125 Z M 20.855469 25.578125 "/>
<path style=" stroke:none;fill-rule:nonzero;fill:rgb(99.609375%,58.428955%,57.249451%);fill-opacity:1;" d="M 26.949219 13.894531 C 27.34375 14.300781 27.84375 14.605469 28.386719 14.785156 C 28.644531 14.875 28.917969 14.949219 29.1875 14.90625 C 29.535156 14.859375 29.886719 14.769531 30.234375 14.710938 C 30.414062 14.679688 30.609375 14.632812 30.792969 14.695312 C 30.972656 14.738281 31.140625 14.90625 31.140625 15.085938 C 31.140625 15.207031 31.066406 15.3125 30.957031 15.386719 C 30.792969 15.523438 30.640625 15.65625 30.429688 15.492188 C 30.324219 15.417969 30.246094 15.296875 30.125 15.234375 C 29.914062 15.117188 29.65625 15.191406 29.414062 15.265625 C 28.460938 15.539062 27.402344 15.566406 26.527344 15.101562 C 25.453125 14.527344 24.695312 13.503906 24.105469 12.4375 C 23.984375 12.210938 23.910156 12.015625 24.0625 11.773438 C 24.195312 11.53125 24.4375 11.367188 24.695312 11.292969 C 25.390625 11.109375 25.527344 11.667969 25.816406 12.164062 C 26.148438 12.78125 26.464844 13.398438 26.949219 13.894531 Z M 26.949219 13.894531 "/>
<path style=" stroke:none;fill-rule:nonzero;fill:rgb(98.429871%,47.059631%,45.489502%);fill-opacity:1;" d="M 27.160156 15.128906 C 26.664062 14.921875 26.207031 14.605469 25.847656 14.195312 C 25.648438 13.988281 25.46875 13.761719 25.300781 13.519531 C 25.136719 13.292969 24.984375 13.054688 24.832031 12.828125 C 24.679688 12.601562 24.515625 12.390625 24.378906 12.164062 C 24.289062 12.015625 24.195312 11.847656 24.152344 11.683594 C 24.121094 11.714844 24.105469 11.742188 24.089844 11.789062 C 23.953125 12.027344 24.015625 12.226562 24.136719 12.449219 C 24.726562 13.519531 25.484375 14.527344 26.558594 15.117188 C 27.222656 15.476562 27.964844 15.539062 28.703125 15.445312 C 28.144531 15.433594 27.632812 15.328125 27.160156 15.128906 Z M 27.160156 15.128906 "/>
<path style=" stroke:none;fill-rule:nonzero;fill:rgb(49.798584%,76.078796%,61.569214%);fill-opacity:1;" d="M 23.757812 11.246094 C 23.484375 11.546875 23.699219 12.164062 23.773438 12.390625 C 23.910156 12.75 24.136719 13.082031 24.363281 13.414062 C 24.863281 13.128906 26.085938 12.421875 26.085938 12.421875 C 26.085938 12.421875 25.421875 10.628906 24.257812 10.929688 C 24.089844 10.976562 23.894531 11.097656 23.757812 11.246094 Z M 23.757812 11.246094 "/>
<path style=" stroke:none;fill-rule:nonzero;fill:rgb(35.688782%,69.40918%,50.979614%);fill-opacity:1;" d="M 24.800781 12.828125 C 24.742188 12.722656 24.679688 12.632812 24.621094 12.527344 C 24.558594 12.421875 24.5 12.300781 24.4375 12.195312 C 24.378906 12.089844 24.332031 11.96875 24.289062 11.863281 C 24.242188 11.757812 24.210938 11.652344 24.183594 11.546875 C 24.152344 11.457031 24.136719 11.351562 24.152344 11.261719 C 24.152344 11.1875 24.167969 11.109375 24.195312 11.035156 C 24.226562 10.992188 24.257812 10.960938 24.304688 10.929688 C 24.289062 10.929688 24.273438 10.929688 24.257812 10.945312 C 24.089844 10.992188 23.894531 11.109375 23.757812 11.277344 C 23.484375 11.578125 23.699219 12.195312 23.773438 12.421875 C 23.910156 12.78125 24.136719 13.113281 24.363281 13.445312 C 24.515625 13.355469 24.726562 13.234375 24.953125 13.113281 C 24.90625 12.992188 24.847656 12.917969 24.800781 12.828125 Z M 24.800781 12.828125 "/>
<path style=" stroke:none;fill-rule:nonzero;fill:rgb(99.609375%,58.428955%,57.249451%);fill-opacity:1;" d="M 27.765625 8.835938 C 27.765625 8.867188 27.78125 8.925781 27.796875 8.972656 C 27.796875 8.925781 27.78125 8.882812 27.765625 8.835938 Z M 27.765625 8.835938 "/>
<g clip-path="url(#clip3)" clip-rule="nonzero">
<path style=" stroke:none;fill-rule:nonzero;fill:rgb(99.609375%,58.428955%,57.249451%);fill-opacity:1;" d="M 28.023438 9.515625 C 28.023438 9.558594 27.980469 9.589844 27.949219 9.621094 C 27.886719 9.652344 27.84375 9.695312 27.78125 9.710938 C 27.691406 10.132812 27.449219 10.476562 27.070312 10.644531 C 26.34375 10.976562 25.390625 10.476562 24.953125 9.546875 C 24.515625 8.597656 24.757812 7.558594 25.484375 7.226562 C 26.207031 6.894531 27.160156 7.390625 27.601562 8.324219 C 27.675781 8.492188 27.738281 8.671875 27.765625 8.835938 C 27.765625 8.867188 27.78125 8.925781 27.796875 8.972656 C 27.828125 9.109375 27.902344 9.289062 27.980469 9.394531 C 27.992188 9.425781 28.023438 9.46875 28.023438 9.515625 Z M 28.023438 9.515625 "/>
</g>
<path style=" stroke:none;fill-rule:nonzero;fill:rgb(99.609375%,58.428955%,57.249451%);fill-opacity:1;" d="M 27.765625 8.835938 C 27.765625 8.867188 27.78125 8.925781 27.796875 8.972656 C 27.796875 8.925781 27.78125 8.882812 27.765625 8.835938 Z M 27.765625 8.835938 "/>
<path style=" stroke:none;fill-rule:nonzero;fill:rgb(1.179504%,15.289307%,49.01886%);fill-opacity:1;" d="M 28.175781 8.296875 C 28.128906 8.460938 27.980469 8.582031 27.84375 8.671875 C 27.328125 9.003906 26.691406 9.167969 26.085938 9.109375 C 26.085938 9.199219 26.101562 9.304688 26.132812 9.394531 C 26.058594 9.363281 25.980469 9.335938 25.90625 9.335938 C 25.832031 9.335938 25.738281 9.394531 25.738281 9.46875 C 25.726562 9.53125 25.769531 9.589844 25.832031 9.636719 C 25.90625 9.679688 26.011719 9.652344 26.027344 9.742188 C 26.042969 9.800781 25.953125 9.890625 25.90625 9.9375 C 25.847656 9.996094 25.785156 10.042969 25.710938 10.085938 C 25.664062 10.117188 25.542969 10.132812 25.511719 10.164062 C 25.542969 10.132812 25.558594 10.085938 25.558594 10.058594 C 25.46875 10.164062 25.332031 10.222656 25.195312 10.238281 C 25.226562 10.207031 25.242188 10.175781 25.269531 10.148438 C 25.179688 10.238281 25.058594 10.3125 24.921875 10.328125 C 25.015625 10.207031 25.027344 10.042969 25 9.890625 C 24.96875 9.753906 24.863281 9.621094 24.847656 9.484375 C 24.832031 9.363281 24.894531 9.214844 24.96875 9.125 C 25.058594 9.003906 25.179688 8.925781 25.300781 8.851562 C 25.648438 8.671875 26.027344 8.582031 26.40625 8.507812 C 26.738281 8.445312 27.054688 8.386719 27.390625 8.339844 C 27.511719 8.324219 27.601562 8.324219 27.738281 8.339844 C 27.8125 8.324219 28.175781 8.324219 28.175781 8.296875 Z M 28.175781 8.296875 "/>
<g clip-path="url(#clip4)" clip-rule="nonzero">
<path style=" stroke:none;fill-rule:nonzero;fill:rgb(91.758728%,55.688477%,3.919983%);fill-opacity:1;" d="M 24.878906 9.347656 C 24.878906 9.347656 28.554688 8.492188 28.703125 7.8125 C 28.734375 7.664062 27.464844 8.070312 27.464844 8.070312 Z M 24.878906 9.347656 "/>
</g>
<g clip-path="url(#clip5)" clip-rule="nonzero">
<path style=" stroke:none;fill-rule:nonzero;fill:rgb(99.21875%,71.759033%,0.779724%);fill-opacity:1;" d="M 25.484375 7.226562 C 24.5 7.664062 24.542969 8.476562 24.878906 9.363281 L 27.464844 8.085938 C 26.996094 7.300781 26.300781 6.863281 25.484375 7.226562 Z M 25.484375 7.226562 "/>
</g>
<g clip-path="url(#clip6)" clip-rule="nonzero">
<path style=" stroke:none;fill-rule:nonzero;fill:rgb(99.21875%,62.348938%,0.779724%);fill-opacity:1;" d="M 24.9375 7.601562 C 24.542969 8.054688 24.636719 8.6875 24.878906 9.347656 L 25.074219 9.257812 C 24.800781 8.730469 24.679688 8.203125 24.9375 7.601562 Z M 24.9375 7.601562 "/>
</g>
<path style=" stroke:none;fill-rule:nonzero;fill:rgb(98.429871%,47.059631%,45.489502%);fill-opacity:1;" d="M 28.023438 9.515625 C 28.023438 9.5 28.023438 9.5 28.023438 9.484375 C 27.980469 9.546875 27.902344 9.589844 27.828125 9.589844 C 27.796875 9.589844 27.765625 9.589844 27.75 9.605469 C 27.722656 9.621094 27.707031 9.652344 27.722656 9.664062 C 27.738281 9.695312 27.765625 9.695312 27.78125 9.695312 C 27.84375 9.664062 27.886719 9.636719 27.949219 9.605469 C 27.980469 9.589844 28.023438 9.558594 28.023438 9.515625 Z M 28.023438 9.515625 "/>
<path style=" stroke:none;fill-rule:nonzero;fill:rgb(98.429871%,47.059631%,45.489502%);fill-opacity:1;" d="M 26.496094 9.621094 C 26.464844 9.652344 26.464844 9.710938 26.480469 9.753906 C 26.496094 9.800781 26.527344 9.832031 26.570312 9.859375 C 26.617188 9.890625 26.679688 9.921875 26.738281 9.9375 C 26.785156 9.953125 26.84375 9.953125 26.875 9.921875 C 26.890625 9.90625 26.890625 9.875 26.890625 9.847656 C 26.890625 9.816406 26.875 9.800781 26.859375 9.769531 C 26.800781 9.695312 26.585938 9.515625 26.496094 9.621094 Z M 26.496094 9.621094 "/>
<path style=" stroke:none;fill-rule:nonzero;fill:rgb(1.179504%,15.289307%,49.01886%);fill-opacity:1;" d="M 27.765625 25.082031 C 27.8125 25.097656 27.871094 25.128906 27.871094 25.171875 C 27.886719 25.21875 27.84375 25.261719 27.796875 25.277344 C 27.75 25.292969 27.707031 25.292969 27.660156 25.277344 C 27.011719 25.1875 26.375 24.960938 25.816406 24.644531 C 25.679688 24.570312 25.589844 24.433594 25.632812 24.285156 C 25.648438 24.238281 25.921875 23.878906 25.96875 23.910156 C 26.285156 24.132812 26.648438 24.316406 26.933594 24.539062 C 27.207031 24.75 27.433594 24.945312 27.765625 25.082031 Z M 27.765625 25.082031 "/>
<path style=" stroke:none;fill-rule:nonzero;fill:rgb(80.389404%,85.879517%,99.609375%);fill-opacity:0.6471;" d="M 18.675781 11.683594 L 9.691406 11.683594 C 9.570312 11.683594 9.476562 11.59375 9.476562 11.472656 C 9.476562 11.351562 9.570312 11.261719 9.691406 11.261719 L 18.691406 11.261719 C 18.8125 11.261719 18.902344 11.351562 18.902344 11.472656 C 18.886719 11.59375 18.796875 11.683594 18.675781 11.683594 Z M 18.675781 11.683594 "/>
<g clip-path="url(#clip7)" clip-rule="nonzero">
<path style=" stroke:none;fill-rule:nonzero;fill:rgb(50.19989%,71.759033%,97.648621%);fill-opacity:1;" d="M 15.046875 31.300781 L 13.773438 31.300781 C 13.730469 31.300781 13.699219 31.269531 13.699219 31.226562 C 13.699219 31.179688 13.730469 31.148438 13.773438 31.148438 L 15.046875 31.148438 C 15.089844 31.148438 15.121094 31.179688 15.121094 31.226562 C 15.121094 31.269531 15.089844 31.300781 15.046875 31.300781 Z M 15.046875 31.300781 "/>
</g>
<g clip-path="url(#clip8)" clip-rule="nonzero">
<path style=" stroke:none;fill-rule:nonzero;fill:rgb(50.19989%,71.759033%,97.648621%);fill-opacity:1;" d="M 9.855469 31.300781 L 4.59375 31.300781 C 4.546875 31.300781 4.515625 31.269531 4.515625 31.226562 C 4.515625 31.179688 4.546875 31.148438 4.59375 31.148438 L 9.855469 31.148438 C 9.902344 31.148438 9.933594 31.179688 9.933594 31.226562 C 9.933594 31.269531 9.902344 31.300781 9.855469 31.300781 Z M 9.855469 31.300781 "/>
</g>
<path style=" stroke:none;fill-rule:nonzero;fill:rgb(50.19989%,71.759033%,97.648621%);fill-opacity:1;" d="M 12.699219 30.15625 L 2.246094 30.15625 C 2.203125 30.15625 2.171875 30.125 2.171875 30.082031 C 2.171875 30.035156 2.203125 30.007812 2.246094 30.007812 L 12.699219 30.007812 C 12.746094 30.007812 12.777344 30.035156 12.777344 30.082031 C 12.777344 30.125 12.730469 30.15625 12.699219 30.15625 Z M 12.699219 30.15625 "/>
<path style=" stroke:none;fill-rule:nonzero;fill:rgb(50.19989%,71.759033%,97.648621%);fill-opacity:1;" d="M 10.539062 29.027344 L 0.0859375 29.027344 C 0.0390625 29.027344 0.0078125 28.996094 0.0078125 28.953125 C 0.0078125 28.90625 0.0390625 28.875 0.0859375 28.875 L 10.539062 28.875 C 10.582031 28.875 10.613281 28.90625 10.613281 28.953125 C 10.613281 28.996094 10.582031 29.027344 10.539062 29.027344 Z M 10.539062 29.027344 "/>
<path style=" stroke:none;fill-rule:nonzero;fill:rgb(50.19989%,71.759033%,97.648621%);fill-opacity:1;" d="M 12.925781 28.019531 L 9.085938 28.019531 C 9.039062 28.019531 9.007812 27.988281 9.007812 27.941406 C 9.007812 27.898438 9.039062 27.867188 9.085938 27.867188 L 12.925781 27.867188 C 12.972656 27.867188 13.003906 27.898438 13.003906 27.941406 C 13.003906 27.988281 12.957031 28.019531 12.925781 28.019531 Z M 12.925781 28.019531 "/>
</g>
</svg>
